<?xml version="1.0" encoding="utf-8"?>
<!-- Generator: Adobe Illustrator 15.1.0, SVG Export Plug-In  -->
<!DOCTYPE svg PUBLIC "-//W3C//DTD SVG 1.1//EN" "http://www.w3.org/Graphics/SVG/1.1/DTD/svg11.dtd" [
	<!ENTITY ns_flows "http://ns.adobe.com/Flows/1.0/">
]>
<svg version="1.1"
	 xmlns="http://www.w3.org/2000/svg" xmlns:xlink="http://www.w3.org/1999/xlink" xmlns:a="http://ns.adobe.com/AdobeSVGViewerExtensions/3.0/"
	 x="0px" y="0px" width="134px" height="89px" viewBox="0 0 134 89" overflow="visible" enable-background="new 0 0 134 89"
	 xml:space="preserve">
<defs>
</defs>
<path fill="#1D1D1B" d="M6,24.656H0C0,11.061,14.775,0,32.937,0v6C18.083,6,6,14.369,6,24.656z"/>
<path fill="#1D1D1B" d="M32.899,46.414C14.366,46.181-0.033,36.607,0.117,24.619l6,0.075c-0.105,8.337,12.194,15.536,26.857,15.72
	L32.899,46.414z"/>
<path fill="#1D1D1B" d="M3,88.859v-6c14.853,0,26.937-8.369,26.937-18.656h6C35.937,77.799,21.161,88.859,3,88.859z"/>
<path fill="#1D1D1B" d="M35.819,64.241l-6-0.076c0.105-8.336-12.194-15.535-26.857-15.719l0.075-6
	C21.57,42.68,35.969,52.253,35.819,64.241z"/>
<text transform="matrix(1 0 0 1 51.8071 26.2783)"><tspan x="0" y="0" font-family="'Corbel-Bold'" font-size="21">dr. kalla</tspan><tspan x="0" y="25.2" font-family="'Corbel-Bold'" font-size="21">creative</tspan><tspan x="0" y="50.4" font-family="'Corbel-Bold'" font-size="21">solutions</tspan></text>
</svg>
